<?xml version="1.0" encoding="utf-8"?>
<!-- Generator: Adobe Illustrator 25.2.1, SVG Export Plug-In . SVG Version: 6.00 Build 0)  -->
<svg version="1.1" id="Layer_1" xmlns="http://www.w3.org/2000/svg" xmlns:xlink="http://www.w3.org/1999/xlink" x="0px" y="0px"
	 viewBox="0 0 799.5 175.4" style="enable-background:new 0 0 799.5 175.4;" xml:space="preserve">
<style type="text/css">
	.st0{fill:#EB4848;}
	.st1{fill:#FFFFFF;}
</style>
<g id="Layer_2_1_">
	<g id="Layer_1-2">
		<path class="st0" d="M399,138c-23.9,0.1-46.2-12.3-58.7-32.8c-0.2-0.3-0.4-0.7-0.6-1.1v-0.1l-0.2-0.4c-0.3-0.5-0.6-1.1-1-1.7
			c-0.1-0.1-0.1-0.3-0.2-0.4c-0.3-0.6-0.6-1.2-1-1.9s-0.7-1.4-1-2.2c-0.6-1.2-1-2.3-1.4-3.4c-0.2-0.6-0.5-1.3-0.7-1.9
			c-0.1-0.4-0.3-0.7-0.4-1.1s-0.3-0.9-0.4-1.3c-5.3-16.8-4-35,3.7-50.8c0.4-0.7,0.7-1.4,1.1-2.1c0.2-0.5,0.5-1,0.8-1.5
			c4.9-8.8,11.7-16.4,19.9-22.3c0.8-0.6,1.5-1.1,2.2-1.6c1.3-0.9,2.6-1.6,3.8-2.3c8.5-4.9,17.9-7.9,27.6-8.8l2-0.2h0.4l1.8-0.1h0.4
			c1.2,0,2.5,0,3.8,0h1.2c0.3,0,0.7,0,1,0.1s0.8,0,1.2,0.1h0.2c0.5,0,1.1,0.1,1.6,0.1c1.1,0.1,2.3,0.2,3.4,0.4h0.2l1.5,0.2h0.2h0.1
			c1.8,0.3,3.5,0.7,5.2,1.2c0.5,0.1,1.1,0.3,1.7,0.5s1.2,0.3,1.8,0.5l1.2,0.4h0.1c0.3,0.1,0.6,0.2,0.9,0.3s0.4,0.1,0.6,0.2h0h0.4
			l0.2,0.2l1,0.4c4.4,1.8,8.6,4,12.6,6.6c0.7,0.4,1.4,0.9,2.2,1.5c8,5.9,14.7,13.4,19.6,22.1l0.2,0.3c0.2,0.4,0.5,0.8,0.7,1.2
			c18,33.6,5.4,75.4-28.2,93.4C421.6,135.2,410.4,138,399,138z M397,3h-0.2L395,3.1h-0.2l-2.1,0.2c-9.3,0.9-18.3,3.7-26.4,8.4
			c-1.2,0.7-2.4,1.4-3.6,2.3c-0.7,0.4-1.4,0.9-2.1,1.5c-7.8,5.6-14.4,12.9-19.1,21.4c-0.3,0.5-0.5,0.9-0.8,1.4
			c-0.4,0.7-0.7,1.4-1,2.1c-7.3,15.2-8.6,32.6-3.5,48.6c0.1,0.4,0.3,0.8,0.4,1.3s0.2,0.7,0.4,1c0.2,0.7,0.5,1.3,0.7,1.9
			c0.4,1,0.8,2,1.4,3.2c0.3,0.7,0.6,1.4,1,2.1s0.6,1.3,1,1.9l0.2,0.3c0.3,0.6,0.6,1.2,1,1.7l0.2,0.3l0.1,0.1
			c0.2,0.3,0.4,0.7,0.6,0.9c19.5,30.8,60.2,40,91.1,20.5c29-18.3,39.1-55.9,23.3-86.3c-0.2-0.4-0.4-0.8-0.6-1.2l-0.1-0.3
			c-4.7-8.2-11.1-15.3-18.8-20.9c-0.8-0.6-1.4-1-2.1-1.4c-3.8-2.5-7.8-4.6-12-6.3l-0.3-0.1L422,7.1l-0.6-0.2
			c-0.4-0.1-0.6-0.2-0.9-0.3h-0.1l-1.2-0.4c-0.6-0.2-1.1-0.4-1.7-0.5s-1-0.3-1.6-0.4c-1.7-0.4-3.4-0.8-5.1-1.1h-0.1h-0.1l-1.5-0.2
			H409c-1.1-0.2-2.1-0.3-3.2-0.4c-0.5,0-1-0.1-1.5-0.1h-0.2L403,3.3h-1h-1.2c-1.3,0-2.5,0-3.7,0L397,3z"/>
		<path class="st1" d="M462.5,69c0,35.1-28.5,63.5-63.6,63.4c-22,0-42.3-11.4-53.9-30.1c-0.2-0.3-0.4-0.6-0.6-0.9
			c-0.1-0.2-0.2-0.3-0.3-0.4c-0.3-0.5-0.6-1.1-0.9-1.6L343,99c-0.3-0.6-0.6-1.2-0.9-1.8s-0.6-1.3-1-2c-0.5-1-0.9-2.1-1.3-3.1
			c-0.2-0.6-0.5-1.2-0.6-1.8c-0.1-0.3-0.2-0.7-0.4-1s-0.3-0.8-0.4-1.2c-4.9-15.5-3.7-32.2,3.4-46.8c0.3-0.7,0.6-1.3,1-2
			c0.2-0.5,0.5-0.9,0.7-1.4c4.5-8.1,10.8-15.1,18.4-20.5c0.7-0.5,1.4-1,2.1-1.4c1.1-0.8,2.3-1.5,3.5-2.2c7.8-4.5,16.5-7.2,25.4-8
			l1.9-0.2h0.3l1.8-0.1h0.3c0.6,0,1.2,0,1.9,0h1.7h1.1l0.9,0.1c0.4,0,0.7,0,1.1,0.1h0.2c0.5,0,1,0.1,1.5,0.1
			c1.1,0.1,2.1,0.2,3.1,0.4h0.1l1.4,0.2h0.2c1.6,0.3,3.3,0.7,4.9,1.1c0.5,0.1,1,0.3,1.5,0.4c0.5,0.2,1.1,0.3,1.6,0.5l1.1,0.4
			c0.3,0.1,0.6,0.2,0.9,0.3s0.6,0.2,0.9,0.3l0,0l0.9,0.3l0.3,0.1c4,1.6,7.9,3.7,11.5,6.1c0.7,0.5,1.4,0.9,2,1.4
			c7.4,5.3,13.5,12.2,18,20.1c0.2,0.5,0.5,0.9,0.8,1.4C459.9,48.1,462.5,58.5,462.5,69z"/>
		<path class="st0" d="M422.6,10l-0.3-0.1l-0.9-0.3l0,0c-0.3-0.1-0.6-0.2-0.9-0.3s-0.6-0.2-0.9-0.3l-1.1-0.4
			c-0.5-0.2-1.1-0.3-1.6-0.5s-1-0.3-1.5-0.4c-1.6-0.4-3.2-0.8-4.9-1.1h-0.2l-1.4-0.2h-0.1c-1-0.2-2.1-0.3-3.1-0.4
			c-0.5,0-1-0.1-1.5-0.1h-0.2c-0.4,0-0.7-0.1-1.1-0.1l-0.9-0.1h-1.1L399,5.5c-0.6,0-1.2,0-1.9,0h-0.3l-1.8,0.1h-0.3l-1.9,0.2
			c-8.9,0.9-17.5,3.6-25.3,8.1h-0.1c-1.2,0.7-2.4,1.4-3.5,2.2c1.6,0.1,3.2,0.1,4.9,0.2h0.8c9.1,0,17-1.2,23.5-3.6
			c0.3-0.5,0.8-0.8,1.3-0.8h0.1c0.8,0,1.5,0.7,1.5,1.5c0,0.1,0,0.3,0,0.4c0,0.2-0.1,0.3-0.1,0.4l0,0c-0.2,0.6-0.5,1.2-0.8,1.8
			c-0.3,0.5-0.5,1.1-0.7,1.7l-0.1,0.4c-0.4,1.3-0.5,2.6-0.4,3.9c1.5,6.4,3.1,12.9,4.8,19.2c1.1-4.5,2.3-9,3.4-13.4l1.5-6
			c0.4-1.3,0.2-2.7-0.4-3.9c-0.7-1.3-1.2-2.6-1.6-4l0,0c0,0,0-0.1,0-0.1v-0.1c-0.1-0.4,0-0.9,0.2-1.2c0.3-0.4,0.7-0.6,1.2-0.6h0.2
			c0.6,0,1.2,0.4,1.4,0.9c6.4,2.4,14.3,3.6,23.4,3.6h0.8c1.7,0,3.5-0.1,5.1-0.2C430.5,13.7,426.7,11.6,422.6,10z M455,39l-2.8,2.3
			l-0.3,0.2l-0.3,0.2l0.6-0.1h0.1c0.6,0,1.1,0.3,1.4,0.9c0.8,1.7,1.5,3.4,2.2,5.2c0.2,0.5,0.1,1-0.2,1.5c-3.1,4.1-6.2,8.1-9.3,12.1
			c-0.8,1-1.8,1.8-2.9,2.5c-2.4,1.5-4.9,3-7.3,4.4l-1.5,0.9c-0.1,0.5-0.2,1.1-0.2,1.7c-0.1,0.8,0.5,1.6,1.4,1.6c0.1,0,0.1,0,0.2,0
			c1.1,0,1.3-0.8,1.3-1.7c0.1-1.4,0.6-1.7,1.8-1c2.8,1.6,3.9,5.1,2.3,8c-0.3,0.5-0.6,0.9-0.9,1.3c-0.8,0.8-1.7,1.6-2.7,2.2
			c-0.9,0.5-1.4,1.6-1.2,2.6c0,0.6-0.1,1.3-0.3,1.9c-0.2,1.2-0.5,2.4-0.6,3.6c-0.1,0.6,0,1.2-0.1,1.9c-0.2,2.4,1,5.3,4.6,4.6
			c1.2-0.3,2.4,0.2,3,1.2c0.3,0.4,1.1,0.4,1.6,0.5s1.4,0.2,1.8,0.6c0.2,0.2-0.1,1.1-0.4,1.6c-0.8,1.5-0.9,3.2-0.3,4.8
			c0,0.2,0.1,0.3,0.2,0.5l0,0c-9.3,12.1-22.8,20.3-37.9,22.7c0.8-0.7,1.5-1.3,2.2-2s1.4-1.5,1.3-2.2c-0.2-2.3,1.1-3.9,2.5-5.3
			c1.3-1.3,2.8-2.4,4.4-3.2c4.5-2.6,7.6-6.1,8.5-11.4c0.4-2,1.3-4,1.7-6.1c0.3-1.4,0.3-2.8,0-4.2c-0.7-3.3-1.7-6.5-2.6-9.7
			c-0.1-0.5-0.3-0.9-0.6-1.3c-1.1-1.4-1.4-3.4-0.5-5c0.2-0.7,1-1.2,1.7-1.2c0.9,0.2,1.7-0.4,1.9-1.3c0-0.1,0-0.1,0-0.2
			c0.1-0.7-0.3-1.3-0.9-1.6c-1.2,0.7-2.4,1.4-3.5,2.2c-1,0.6-1.7,1.5-2.1,2.6c-1.3,3.3-2.6,6.7-3.8,9.9c-0.9,2.3-1.8,4.7-2.7,7
			c-0.5,1.2-1.2,2.2-2.3,3c-2.4,1.7-4.8,3.4-7.2,5c-1.8,1.2-3.7,2.5-5.5,3.8c-1.2,1-2.8,1-4,0c-1.7-1.2-3.5-2.4-5.2-3.6
			c-2.5-1.7-5.1-3.5-7.6-5.3c-0.9-0.7-1.6-1.6-2-2.7c-0.9-2.3-1.8-4.7-2.6-7c-1.3-3.4-2.6-7-4-10.5c-0.4-0.9-1.1-1.7-1.9-2.3
			c-1.6-1-3.2-2-4.8-2.9c-0.7,0.2-1.1,0.9-1,1.6c0.1,0.9,0.8,1.6,1.7,1.5c0.1,0,0.1,0,0.2,0c0.8-0.1,1.5,0.4,1.7,1.2
			c0.8,1.6,0.6,3.6-0.5,5c-0.3,0.4-0.5,0.8-0.6,1.3c-0.9,3.2-1.9,6.4-2.6,9.7c-0.3,1.4-0.3,2.8,0,4.2c0.4,2,1.3,4,1.7,6.1
			c1,5.3,4,8.8,8.5,11.4c1.6,0.9,3.1,2,4.4,3.2c1.4,1.4,2.6,3,2.5,5.3c0,0.7,0.7,1.6,1.3,2.2c0.9,1,2,1.8,3,2.7
			c-15.5-2.6-29.3-11.2-38.4-24c0.6-1.5,0.4-3.2-0.3-4.7c-0.3-0.5-0.6-1.4-0.4-1.6c0.4-0.4,1.2-0.4,1.8-0.6s1.4-0.2,1.6-0.6
			c0.6-1,1.8-1.5,3-1.2c3.6,0.7,4.8-2.2,4.6-4.6c0-0.6,0-1.3-0.1-1.9c-0.2-1.2-0.4-2.4-0.6-3.6c-0.2-0.6-0.3-1.2-0.3-1.9
			c0.2-1-0.3-2.1-1.2-2.6c-1-0.6-1.9-1.4-2.7-2.2c-2.3-2.3-2.3-6,0.1-8.3c0.4-0.4,0.8-0.7,1.3-1c1.2-0.7,1.7-0.4,1.8,1
			c0,0.9,0.2,1.7,1.3,1.7c0.8,0,1.5-0.6,1.6-1.4c0-0.1,0-0.2,0-0.2c0-0.5,0-1.1-0.2-1.6l-2-1.2l-6.4-3.8c-0.8-0.5-1.4-1-2-1.7
			c-3.2-4.2-6.5-8.4-9.5-12.4c-0.3-0.4-0.4-1-0.2-1.5c0.6-1.7,1.3-3.3,2.1-4.9c0.2-0.5,0.8-0.9,1.4-0.9h0.1l0.8,0.1l-0.4-0.4l0,0
			l-0.1-0.1c-0.9-0.8-1.8-1.5-2.7-2.3c-0.4,0.6-0.7,1.3-1,2l0,0c-0.1,0.2-0.1,0.3-0.2,0.5c-0.8,1.7-1.5,3.4-2.1,5.1
			c-4.9,13.2-5.3,27.7-1.1,41.2c0.1,0.4,0.2,0.8,0.4,1.2s0.2,0.7,0.4,1c0.2,0.6,0.4,1.2,0.6,1.8c0.4,1,0.8,2.1,1.3,3.1
			c0.3,0.7,0.6,1.4,1,2s0.6,1.2,0.9,1.8l0.2,0.3c0.3,0.6,0.6,1.1,0.9,1.6c0.1,0.2,0.2,0.3,0.3,0.4c0.2,0.3,0.4,0.6,0.6,0.9
			c18.5,29.8,57.7,38.9,87.5,20.4C460.8,105,470.6,68.5,455,39z M444.6,78c-1.5,4.5-4.3,8.5-8,11.4c-0.6-1.3-0.1-2.3,0.4-3.3
			c0.3-0.8,0.4-1.6,0.4-2.4c-0.1-0.8,0.3-1.6,1-2c1-0.8,2-1.6,2.9-2.5c2-1.9,2.1-4.2,1-6.7c-0.1-0.3-0.3-0.6-0.6-1.3
			C444.5,73.2,445.5,75.4,444.6,78z M354.7,70.6l-0.6,1.3c-1.1,2.4-1,4.7,1,6.7c0.9,0.9,1.9,1.7,2.9,2.5c0.7,0.4,1.1,1.2,1,2
			c0,0.8,0.1,1.6,0.4,2.4c0.4,1,0.9,2,0.3,3.3c-3.7-2.9-6.5-6.9-8-11.4C351,74.7,352,72.5,354.7,70.6L354.7,70.6z M350,101.7
			c-0.1,0.4-0.1,0.7-0.2,1.1c-0.4-0.6-0.9-1.2-1.2-1.9c0-0.1,0.1-0.2,0.1-0.2c0.2-0.4,0.4-0.9,0.5-1.3h0.4
			C349.9,100.1,350,100.9,350,101.7z M368.7,98c1.9,1.4,4.2,2.2,6.6,2.4c1.7,0.1,3.2,1,4,2.4c0.1,0.3,0.3,0.5,0.6,0.7
			c2,1.1,2.6,2.8,2.7,4.9c0,0.4,0.4,1.1,0.6,1.1c2.4,0.3,3.1,2,3.7,3.9c0.2,0.7,0.5,1.5-0.4,2c-0.8,0.4-1.8,0.2-2.2-0.6
			c0,0,0,0,0-0.1c-1.5-2.5-4-3.4-6.6-4.2c-3-0.9-5.5-2.9-7-5.6C369.6,103.1,369.4,100.6,368.7,98z M394.1,128.4l-4.4-0.5
			c-1-1.1-2.1-2.2-3.2-3.2c-0.8-0.6-1.2-1.5-1.2-2.5c0.1-0.7-0.1-1.3-0.3-1.9c-1-2-2.6-3.8-4.5-5c-1.2-0.7-2.5-1.5-3.7-2.2
			c-2.2-1.3-3.9-3.2-5.1-5.5c2.1,2.1,4.7,3.6,7.6,4.3c1.8,0.4,3.4,1.6,4.3,3.2c0.5,1.1,1.7,1.6,2.8,1.2c1.2-0.5,1.7,0,2,0.9
			c0.4,0.8,0.6,1.6,0.7,2.4c0,0.9,0.5,1.8,1.3,2.3C392.7,123.3,394.1,125.7,394.1,128.4L394.1,128.4z M409.6,114.2
			c0.6-1.9,1.3-3.7,3.7-3.9c0.2,0,0.6-0.7,0.6-1.1c0.1-2.1,0.8-3.8,2.7-4.9c0.3-0.2,0.5-0.4,0.6-0.7c0.8-1.4,2.3-2.3,4-2.4
			c2.4-0.1,4.7-1,6.6-2.4c-0.7,2.6-0.9,5.1-2.1,7c-1.5,2.7-4,4.7-7,5.6c-2.6,0.8-5.1,1.7-6.6,4.2c-0.4,0.8-1.4,1.1-2.2,0.7
			c0,0,0,0,0,0C409,115.7,409.4,114.9,409.6,114.2L409.6,114.2z M402.4,128.4c0.2-2.4,1.5-4.6,3.6-5.9c0.8-0.5,1.3-1.4,1.3-2.3
			c0.1-0.8,0.4-1.7,0.7-2.4c0.4-0.9,0.8-1.4,2-0.9c1.1,0.5,2.4-0.1,2.9-1.2c0.9-1.6,2.5-2.8,4.3-3.2c2.9-0.7,5.5-2.2,7.6-4.4
			c-1.2,2.3-3,4.2-5.1,5.5c-1.2,0.8-2.4,1.5-3.7,2.2c-1.9,1.3-3.5,3-4.5,5.1c-0.3,0.6-0.4,1.3-0.3,1.9c0,1-0.4,1.9-1.2,2.5
			c-0.9,0.8-1.7,1.6-2.5,2.5C405.7,128.2,404.1,128.3,402.4,128.4L402.4,128.4z M446.8,104.3c-0.1-0.6-0.2-1.2-0.3-1.9
			c0-0.8,0.1-1.6,0.4-2.3h0.4c0.2,0.4,0.3,0.9,0.5,1.3c0.1,0.3,0.3,0.5,0.5,0.8L446.8,104.3z"/>
		<path class="st0" d="M394.5,13.3v0.4c0-0.1,0.1-0.3,0.1-0.4H394.5z"/>
		<path d="M452.4,43.2l-4.6,0.4l-0.2-0.4c0.4-0.4,0.8-0.8,1.2-1.2l2.1-1.7l3.3-2.8c-4.5-7.9-10.6-14.8-18-20.1
			c-2.3,0.2-4.7,0.3-7.1,0.3c-3.7,0-7.5-0.1-11.2-0.6c-0.5,0-1-0.1-1.5-0.2c-0.9-0.1-1.7-0.2-2.6-0.4s-1.9-0.4-2.9-0.6
			s-2.1-0.5-3.2-0.8c-0.5-0.1-1-0.3-1.5-0.5c-1-0.3-2-0.7-2.9-1v-0.5h-0.2c0,0.1,0,0.1,0,0.2c0.3,1.3,0.8,2.5,1.5,3.7
			c0.8,1.5,1,3.3,0.5,5c-1.8,6.8-3.5,13.6-5.3,20.5c-0.2,0.6-0.6,1.2-1,1.7c-0.4-0.5-1.1-1-1.3-1.6c-1.8-6.8-3.5-13.5-5.1-20.4
			c-0.2-1.7,0-3.4,0.5-5c0-0.1,0-0.2,0-0.2c0,0,0-0.1,0-0.2c0-0.1,0-0.1,0-0.1c0.2-0.6,0.5-1.2,0.7-1.7c0.2-0.5,0.4-0.9,0.6-1.4
			l-1.5,0.6l-1.4,0.5l-0.6,0.2l-0.8,0.2l-0.7,0.2c-0.2,0.1-0.5,0.1-0.7,0.2s-0.6,0.2-0.9,0.2l-0.5,0.1c-0.3,0.1-0.6,0.1-0.9,0.2
			c-0.3,0.1-0.4,0.1-0.7,0.1l-0.7,0.1l-1,0.2l-0.5,0.1l-0.9,0.1c-0.7,0.1-1.4,0.2-2.1,0.3c-0.5,0.1-1,0.1-1.5,0.2l-0.6,0.1h-0.1
			l-0.7,0.1l-1.6,0.1l-0.6,0h-0.1h-0.7h-0.5h-0.8h-0.8h-0.6c-1.1,0-2.3,0-3.4,0c-2.4,0-4.7-0.1-6.9-0.3
			c-7.6,5.5-13.8,12.6-18.3,20.8l3,2.6l2.1,1.8c0.4,0.4,0.7,0.8,1,1.2l-0.2,0.4l-4.4-0.4c-0.7,1.5-1.4,3.1-2,4.8
			c3.2,4.1,6.3,8.3,9.5,12.4c0.5,0.6,1,1,1.6,1.4c2.4,1.4,4.8,2.9,7.2,4.3c3.5,2.1,6.9,4.1,10.3,6.2l2.5,1.5c1.1,0.7,2,1.8,2.5,3
			c2.3,5.8,4.4,11.7,6.6,17.5c0.3,0.8,0.8,1.5,1.5,2.1c4.2,3,8.5,5.9,12.8,8.9c0.6,0.6,1.6,0.6,2.2,0c4.2-3,8.5-5.8,12.6-8.8
			c0.8-0.6,1.4-1.4,1.7-2.3c2.2-5.6,4.3-11.3,6.5-17c0.6-1.3,1.5-2.5,2.7-3.3l1.3-0.8c3.4-2.1,6.8-4.2,10.3-6.2
			c2.6-1.6,5.1-3.1,7.7-4.7c1-0.6,1.8-1.3,2.5-2.1c3.1-4,6.2-8,9.3-12.1C453.9,46.5,453.2,44.9,452.4,43.2z M374.3,32.9L375,33
			l0.8,0.2l0,0l0.8,0.2l1.6,0.3c0,0.1,0,0.1,0,0.2l0,0c0,0.1,0,0.1,0,0.2s0,0,0,0l0,0l0,0l0,0c0,0,0,0.1,0,0.1l0,0.1c0,0,0,0,0,0.1
			c0,0,0,0.1,0,0.1l0,0l-0.1,0.2c0,0,0,0.1-0.1,0.1l0,0l-0.1,0.1l-0.1,0.1c-0.1,0.1-0.2,0.1-0.3,0.2h-0.1h-0.1c0,0-0.1,0-0.1,0H377
			l0,0h-0.1h-0.3c-0.2,0-0.3,0-0.5,0C374.6,35.3,374,34.4,374.3,32.9z M384.4,46.5c0,0.6-0.1,1.1-0.2,2.1l-11.8-10.9l-3.8-3.5
			l-1.8-1.6l-0.6-0.6l-0.2-0.2l0.3-0.6l5,1v0.1c0.2,1.1,0.5,2.3,0.9,3.3c0,0.1,0.1,0.2,0.1,0.2l0.1,0.3l0.1,0.2
			c0,0.1,0.1,0.1,0.1,0.2c0.1,0.1,0.2,0.2,0.2,0.3c0,0,0.1,0.1,0.1,0.1c0.2,0.3,0.5,0.5,0.8,0.7l0.3,0.2h0.1l0.2,0.1
			c0.4,0.2,0.8,0.3,1.2,0.3c0.3,0,0.7,0,1,0c0.2,0,0.3,0,0.5-0.1h0.1h0.1c0.2,0,0.3-0.1,0.5-0.2l0.1,0c0.1,0,0.2-0.1,0.3-0.2
			l0.2-0.1c0.1-0.1,0.2-0.2,0.3-0.2l0.1-0.1c0.7-0.7,1.3-1.5,1.8-2.4c0.1-0.2,0.2-0.4,0.3-0.6c2.8,0.2,3.4,0.8,3.4,3.5
			C384.4,40.7,384.4,43.6,384.4,46.5z M408.2,96.1c-2.8,2.3-5.7,4.5-8.6,6.7c-0.2,0.1-0.4,0.2-0.6,0.2c-0.3,0-0.7,0-1-0.2
			c-3-2.2-6-4.5-8.9-6.9c-1.1-1-1.7-2.5-1.4-4L388,92l5.8,2c0.5,0.2,1.1,0.4,1.6,0.4l0,0h0.1h0.1c0.1,0,0.1,0,0.2-0.1h0
			c0.1,0,0.1-0.1,0.2-0.2l0.1-0.1l0.1-0.1c0.2-0.5,0.4-0.9,0.5-1.4c0.4-1.8,0.8-3.7,1.3-5.5c0.1-0.6,0.4-1.1,0.9-1.4l0.1,0.2
			c0.3,0.4,0.5,0.9,0.6,1.4c0.5,1.9,0.9,3.8,1.4,5.6c0.1,0.3,0.1,0.6,0.2,0.8c0,0.1,0.1,0.2,0.1,0.3c0.2,0.5,0.7,0.7,1.2,0.7l0,0
			c0.4-0.1,0.9-0.2,1.3-0.3c1.9-0.7,3.8-1.4,5.9-2.1c0,0,0,0.1,0,0.1C409.9,93.7,409.3,95.2,408.2,96.1z M423.1,32.9
			c0,0.2,0.1,0.4,0.1,0.6v0.4V34v0.2v0.1c0,0,0,0,0,0.1l0,0l0,0c0,0.1,0,0.1-0.1,0.2l-0.1,0.1l-0.1,0.1l-0.1,0.1
			c-0.1,0.1-0.1,0.1-0.2,0.2l-0.3,0.2h-0.1h-0.1l-0.3,0.1h-0.1h-0.1c-0.1,0-0.3,0-0.4,0h-0.2h-0.1c-0.1,0-0.2-0.1-0.3-0.1
			c0,0-0.1-0.1-0.1-0.1l-0.1-0.1l0,0l0,0l-0.1-0.1c-0.4-0.4-0.6-0.9-0.8-1.3L423.1,32.9z M430.4,32.9c-0.2,0.2-0.4,0.3-0.6,0.5
			L428,35l-14.6,13.5c-0.2-0.7-0.3-1.4-0.4-2.1c0-2.8,0-5.6-0.1-8.5s0.6-3.4,3.5-3.7l0.2,0.3l0.1,0.3c0.1,0.2,0.2,0.5,0.4,0.7l0,0
			c0.2,0.3,0.4,0.5,0.5,0.8l0.3,0.3c0.2,0.2,0.4,0.4,0.7,0.6l0.1,0.1l0.2,0.1l0.3,0.2h0.1h0.1l0.2,0.1c0,0,0.1,0,0.1,0.1
			c0.1,0,0.2,0.1,0.4,0.1l0,0c0.1,0,0.2,0,0.3,0.1c0.1,0,0.1,0,0.2,0h0.2h0.6h0.2c0.2,0,0.3,0,0.5-0.1c0.1,0,0.2,0,0.3-0.1h0
			l0.3-0.1h0.1h0.1h0.1l0,0l0.2-0.1l0.1-0.1l0.2-0.1h0.1h0.1l0.1,0l0.1-0.1l0,0l0.1-0.1l0.1-0.1c0.1-0.1,0.3-0.3,0.4-0.4
			c0.1-0.1,0.2-0.2,0.2-0.3c0,0,0.1-0.1,0.1-0.1l0.1-0.2l0.1-0.2c0.1-0.1,0.1-0.3,0.2-0.4c0-0.1,0.1-0.1,0.1-0.2c0,0,0-0.1,0-0.1
			s0.1-0.3,0.1-0.4c0-0.1,0-0.1,0-0.2l0,0c0-0.1,0-0.1,0-0.2c0-0.1,0-0.2,0-0.3l0.1-0.5v-0.3l0,0c0,0,0-0.1,0-0.1v-0.1
			c0,0,0-0.1,0-0.1c0-0.2,0-0.4,0-0.7l5.2-1.1c0.1,0.2,0.2,0.4,0.3,0.6L430.4,32.9z"/>
		<polygon class="st1" points="11.2,88.8 11.2,42.7 11.2,37.8 6.3,37.8 4.9,37.8 0,37.8 0,42.7 0,95.1 0,100 4.9,100 23.9,100 
			28.8,100 28.8,95.1 28.8,93.7 28.8,88.8 23.9,88.8 		"/>
		<path class="st1" d="M67.1,37.1c-5.7,0-9.8,1.2-12.7,3.8c-3.1,2.7-4.7,6.9-4.7,12.7v31.1c0,5.8,1.6,10,4.6,12.7
			c2.9,2.5,7,3.7,12.6,3.7c5.9,0,10.2-1.2,13-3.8s4.4-6.9,4.4-12.6V53.5c0-5.4-1.4-9.6-4.3-12.3S73,37.1,67.1,37.1z M60.9,53.8
			c0-2.6,0.5-4,1-4.5c0.1-0.1,1.1-1,5.1-1c3.3,0,4.8,0.6,5.2,1c0.2,0.2,1,1.3,1,4.5v30.6c0,2.6-0.5,4-1,4.5s-1.9,1-5.2,1
			c-3.8,0-5-0.9-5.2-1.1s-1-1.1-1-4.4L60.9,53.8z"/>
		<polygon class="st1" points="140.6,37.8 135.7,37.8 135.7,42.7 135.7,69 123.5,40.7 122.2,37.8 119,37.8 117,37.8 112.1,37.8 
			112.1,42.7 112.1,95.1 112.1,100 117,100 118.4,100 123.3,100 123.3,95.1 123.3,68.5 135.7,97.1 137,100 140.2,100 142,100 
			146.9,100 146.9,95.1 146.9,42.7 146.9,37.8 142,37.8 		"/>
		<polygon class="st1" points="180.4,37.8 175.5,37.8 175.5,42.7 175.5,95.1 175.5,100 180.4,100 202.1,100 207,100 207,95.1 
			207,93.7 207,88.8 202.1,88.8 186.7,88.8 186.7,73.1 197.6,73.1 202.5,73.1 202.5,68.2 202.5,66.8 202.5,61.9 197.6,61.9 
			186.7,61.9 186.7,49 202.1,49 207,49 207,44.1 207,42.7 207,37.8 202.1,37.8 		"/>
		<polygon class="st1" points="242.2,88.8 242.2,42.7 242.2,37.8 237.3,37.8 235.9,37.8 231,37.8 231,42.7 231,95.1 231,100 
			235.9,100 254.9,100 259.8,100 259.8,95.1 259.8,93.7 259.8,88.8 254.9,88.8 		"/>
		<polygon class="st1" points="300,37.8 298.5,37.8 295,37.8 293.9,41 288.7,55.5 284.1,41.2 283,37.8 279.5,37.8 278,37.8 
			271.2,37.8 273.3,44.2 282.7,73.4 282.7,95.1 282.7,100 287.6,100 289,100 293.9,100 293.9,95.1 293.9,73.5 304.5,44.3 
			306.9,37.8 		"/>
		<polygon class="st1" points="533.1,38.7 529,38.7 528.3,42.8 524.4,64.9 519.9,42.6 519.1,38.7 515.1,38.7 513.7,38.7 509.8,38.7 
			508.9,42.6 504.3,64.4 500.6,42.8 499.9,38.7 495.8,38.7 494.4,38.7 488.7,38.7 489.6,44.4 498.2,95 498.9,99.1 503,99.1 
			504.4,99.1 508.3,99.1 509.1,95.2 514.3,70.8 519.3,95.2 520.1,99.1 524.1,99.1 525.7,99.1 529.8,99.1 530.5,95 539.3,44.4 
			540.2,38.7 534.4,38.7 		"/>
		<path class="st1" d="M577.8,38c-5.5,0-9.5,1.2-12.4,3.7c-3,2.6-4.5,6.8-4.5,12.3v30.1c0,5.6,1.5,9.8,4.5,12.4
			c2.8,2.4,6.8,3.6,12.3,3.6c5.8,0,9.9-1.2,12.7-3.8s4.3-6.7,4.3-12.3V54c0-5.3-1.4-9.3-4.2-12S583.6,38,577.8,38z M572,54.3
			c0-2.5,0.5-3.8,0.9-4.2c0,0,1-0.9,4.8-0.9s4.9,0.9,4.9,0.9c0.2,0.2,0.9,1.2,0.9,4.2v29.5c0,2.5-0.5,3.8-0.9,4.2c0,0-1,0.9-4.9,0.9
			c-3.6,0-4.7-0.8-4.8-1s-0.9-0.9-0.9-4.2V54.3z"/>
		<polygon class="st1" points="632.3,87.9 632.3,43.6 632.3,38.7 627.4,38.7 626,38.7 621.1,38.7 621.1,43.6 621.1,94.2 621.1,99.1 
			626,99.1 644.3,99.1 649.2,99.1 649.2,94.2 649.2,92.8 649.2,87.9 644.3,87.9 		"/>
		<polygon class="st1" points="688.3,38.7 684.3,38.7 683.5,42.6 678.6,66.7 673.4,42.5 672.5,38.7 668.6,38.7 667.2,38.7 
			661.2,38.7 662.5,44.6 673.3,95.2 674.2,99.1 678.1,99.1 679.2,99.1 683.2,99.1 684,95.2 694.5,44.6 695.7,38.7 689.7,38.7 		"/>
		<polygon class="st1" points="722.1,38.7 717.3,38.7 717.3,43.6 717.3,94.2 717.3,99.1 722.1,99.1 743.1,99.1 748,99.1 748,94.2 
			748,92.8 748,87.9 743.1,87.9 728.4,87.9 728.4,73.1 738.8,73.1 743.6,73.1 743.6,68.2 743.6,66.9 743.6,62 738.8,62 728.4,62 
			728.4,49.8 743.1,49.8 748,49.8 748,45 748,43.6 748,38.7 743.1,38.7 		"/>
		<path class="st1" d="M797.8,72.7c-1.3-2.5-3.2-4.6-5.6-6c-2.4-1.4-4.8-2.5-7.4-3.5c-1.4-0.6-2.8-1.3-4.2-2c-0.7-0.4-1.3-1-1.6-1.7
			c-0.5-1.1-0.7-2.4-0.6-3.7c-0.1-1.9,0.4-3.7,1.3-5.3c0.5-0.7,1.6-1,3.4-1c2.6,0,3.5,0.9,3.7,1.1s1.1,1.1,1.1,3.7v8h11.1V54
			c0-4.8-1.5-8.7-4.5-11.5c-3.1-2.8-7.3-4.3-11.5-4.2c-6.9,0-10.5,3-12.4,5.4c-2.3,3.1-3.5,7.2-3.5,12.1c-0.1,3,0.5,6,1.8,8.7
			c1.2,2.3,3,4.3,5.2,5.7c2,1.3,4.1,2.3,6.3,3.2l0,0l0,0c1.7,0.6,3.4,1.4,5,2.2c0.9,0.4,1.6,1.1,2.1,1.9c0.2,0.3,0.7,1.5,0.7,4.2
			c0,4.1-1,5.3-1.3,5.6c-1.2,1-2.8,1.5-4.3,1.4c-0.9,0-1.7-0.2-2.5-0.6c-0.6-0.5-1-1.1-1.3-1.8c-0.7-2-1-4.1-0.8-6.1v-5.9h-11.1v5.9
			c-0.1,3.6,0.5,7.3,1.7,10.7c1.1,3,3.2,5.5,6,7c2.5,1.3,5.2,1.9,8,1.9c2.8,0,5.6-0.6,8.1-1.8c2.8-1.3,5-3.5,6.5-6.3
			c1.6-3.1,2.4-6.6,2.3-10.1C799.6,78.6,799,75.5,797.8,72.7z"/>
	</g>
</g>
<g>
	<path class="st1" d="M219.9,174.8V148h7.1c1,0,2,0.1,2.9,0.5c0.9,0.4,1.6,1,2,1.8c0.6,1.1,0.8,2.4,0.7,3.7v15
		c0.1,1.3-0.2,2.5-0.7,3.7c-0.4,0.8-1.1,1.5-2,1.8c-1,0.3-2,0.5-3,0.5L219.9,174.8z M220.6,174.1h6.4c1.3,0.1,2.6-0.3,3.7-1.1
		c1-1.2,1.5-2.8,1.3-4.3v-14.5c0.2-1.5-0.3-3.1-1.3-4.3c-1-0.9-2.3-1.3-3.7-1.2h-6.4V174.1z"/>
	<path class="st1" d="M251.8,174.8V148h11.1v0.7h-10.4v11.6h8.1v0.7h-8.1v13h10.4v0.7L251.8,174.8z"/>
	<path class="st1" d="M283.9,175.3c-1.1,0-2.1-0.2-3-0.7c-0.9-0.5-1.6-1.4-2-2.4c-0.5-1.5-0.8-3.1-0.7-4.7v-0.5h0.7v0.5
		c-0.1,1.5,0.2,2.9,0.7,4.3c0.3,0.9,1,1.7,1.8,2.2c0.8,0.4,1.7,0.7,2.6,0.6c1.5,0.1,2.9-0.4,4-1.4c1.2-1.3,1.8-3.1,1.6-4.9
		c0.1-1.3-0.2-2.5-0.8-3.7c-0.5-0.8-1.3-1.4-2.1-1.8c-0.9-0.5-1.9-0.9-2.9-1.3c-1-0.4-1.9-0.8-2.8-1.4c-0.8-0.5-1.4-1.2-1.8-2.1
		c-0.5-1.1-0.7-2.2-0.7-3.4c-0.1-1.7,0.4-3.4,1.3-4.9c1.1-1.3,2.8-2,4.5-1.8c1.6-0.1,3.1,0.5,4.3,1.5c1.1,1.1,1.7,2.6,1.6,4.2v1.8
		h-0.7v-1.6c0.2-2.6-1.7-4.9-4.3-5.2c-0.3,0-0.6,0-0.9,0c-1.5-0.2-3,0.5-3.9,1.7c-0.8,1.3-1.2,2.8-1.1,4.3c-0.1,1.1,0.2,2.2,0.7,3.2
		c0.4,0.8,1.1,1.4,1.8,1.8c0.8,0.4,1.6,0.8,2.5,1.2c1.2,0.5,2.4,1,3.5,1.7c0.9,0.5,1.5,1.2,2,2.1c0.5,1.2,0.7,2.4,0.6,3.7
		c0.1,1.4-0.2,2.8-0.8,4.1c-0.5,1-1.3,1.7-2.3,2.2C286.1,175,285,175.3,283.9,175.3z"/>
	<path class="st1" d="M310,174.8v-26.1h-5V148h10.8v0.7h-5.1v26.1H310z"/>
	<path class="st1" d="M332.4,174.8V148h0.7v26.8L332.4,174.8z"/>
	<path class="st1" d="M352.7,174.8V148h1l11.1,25.6V148h0.7v26.8h-1l-11.1-25.6v25.6L352.7,174.8z"/>
	<path class="st1" d="M387.7,174.8v-11.5l-4.9-15.3h0.8l4.6,14.3l5.1-14.3h0.8l-5.6,15.3v11.5L387.7,174.8z"/>
	<path class="st1" d="M430.2,174.8v-4.8c0-1.2,0.2-2.3,0.8-3.3c0.6-0.9,1.3-1.6,2.2-2.2c0.9-0.6,1.8-1.2,2.8-1.8
		c1.4-0.9,2.8-2,3.9-3.2c1.1-1.3,1.7-3,1.6-4.7v-0.6c0.1-1.5-0.3-3.1-1.3-4.3c-1.1-1-2.6-1.5-4.1-1.4c-1.4-0.1-2.8,0.4-3.9,1.2
		c-1.1,1-1.6,2.5-1.5,4v2.4H430v-2.2c-0.4-3,1.6-5.8,4.6-6.2c0.5-0.1,1-0.1,1.4,0c1.7-0.1,3.4,0.5,4.7,1.7c1.1,1.4,1.6,3.1,1.5,4.9
		c0.1,1.8-0.5,3.7-1.5,5.2c-1.1,1.5-2.6,2.7-4.2,3.7c-1,0.6-2,1.2-2.8,1.8c-0.8,0.6-1.5,1.2-2,2c-0.5,0.9-0.8,1.9-0.7,3v4h11.5v0.7
		L430.2,174.8z"/>
	<path class="st1" d="M486.2,175.4c-1,0-2.1-0.1-3.1-0.4c-0.9-0.2-1.7-0.8-2.2-1.7c-0.6-1.2-0.9-2.5-0.8-3.9v-15.9
		c-0.1-1.3,0.2-2.7,0.8-3.9c0.5-0.8,1.3-1.4,2.2-1.6c1-0.3,2.1-0.4,3.2-0.4c1.1,0,2.1,0.1,3.2,0.4c0.9,0.3,1.7,0.9,2.2,1.7
		c0.6,1.2,0.9,2.5,0.8,3.8v4h-0.8v-4.2c0.1-1.1-0.2-2.2-0.7-3.2c-0.4-0.7-1.1-1.2-1.9-1.4c-0.9-0.2-1.9-0.4-2.8-0.3
		c-1,0-2,0.1-2.9,0.4c-0.8,0.3-1.4,0.8-1.8,1.5c-0.5,1.1-0.7,2.2-0.7,3.4v15.9c-0.1,1.1,0.2,2.3,0.7,3.3c0.5,0.7,1.2,1.2,2,1.4
		c0.9,0.3,1.8,0.4,2.7,0.4c1,0,1.9-0.1,2.8-0.4c0.8-0.2,1.5-0.7,2-1.4c0.5-1,0.8-2.1,0.7-3.3v-3.3h0.7v3.2c0.1,1.3-0.2,2.7-0.8,3.9
		c-0.5,0.8-1.3,1.4-2.2,1.6C488.4,175.3,487.3,175.4,486.2,175.4z"/>
	<path class="st1" d="M511.6,174.8V148h0.7v26.1h9v0.7L511.6,174.8z"/>
	<path class="st1" d="M535.3,174.8l6.8-26.8h0.6l6.8,26.8h-0.8l-1.8-7.3h-9.1l-1.8,7.3L535.3,174.8z M538,166.9h8.8l-4.2-16.1
		l-0.2-0.8l-0.2,0.8L538,166.9z"/>
	<path class="st1" d="M566.8,174.8V148h1l11.1,25.6V148h0.7v26.8h-1l-11.1-25.6v25.6L566.8,174.8z"/>
</g>
</svg>
